<svg width="24" height="24" viewBox="0 0 24 24" fill="none" xmlns="http://www.w3.org/2000/svg">
<path d="M12 0.5C14.2543 0.5 16.4167 1.3952 18.0107 2.98926C19.6048 4.58332 20.5 6.74566 20.5 9C20.5 10.5095 19.9727 12.1765 19.1455 13.8525C18.321 15.5231 17.2159 17.1677 16.1025 18.623C14.9904 20.0768 13.8768 21.3324 13.041 22.2246C12.6235 22.6703 12.2758 23.0252 12.0332 23.2676C12.0221 23.2787 12.0107 23.2892 12 23.2998C11.9893 23.2892 11.9779 23.2787 11.9668 23.2676C11.7242 23.0252 11.3765 22.6703 10.959 22.2246C10.1232 21.3324 9.0096 20.0768 7.89746 18.623C6.78412 17.1677 5.679 15.5231 4.85449 13.8525C4.02728 12.1765 3.5 10.5095 3.5 9C3.5 6.74566 4.3952 4.58332 5.98926 2.98926C7.58332 1.3952 9.74566 0.5 12 0.5ZM12 4C10.6739 4 9.40253 4.52716 8.46484 5.46484C7.52716 6.40253 7 7.67392 7 9C7 10.3261 7.52716 11.5975 8.46484 12.5352C9.40253 13.4728 10.6739 14 12 14C13.3261 14 14.5975 13.4728 15.5352 12.5352C16.4728 11.5975 17 10.3261 17 9C17 7.67392 16.4728 6.40253 15.5352 5.46484C14.5975 4.52716 13.3261 4 12 4Z" fill="#EFF0EB" stroke="#1A1A1A"/>
</svg>
