<svg width="65" height="65" viewBox="0 0 65 65" fill="none" xmlns="http://www.w3.org/2000/svg">
<g clip-path="url(#clip0_323_3229)">
<path d="M32.5 1C38.6994 1 44.6447 3.46302 49.0283 7.84668C53.412 12.2303 55.875 18.1756 55.875 24.375C55.875 28.5399 54.422 33.1107 52.1699 37.6738C49.9232 42.226 46.9171 46.7 43.8936 50.6523C40.8723 54.6017 37.8485 58.011 35.5791 60.4336C34.4451 61.6442 33.5005 62.6066 32.8408 63.2656C32.7176 63.3887 32.6027 63.5 32.5 63.6016C32.3973 63.5 32.2824 63.3887 32.1592 63.2656C31.4995 62.6066 30.5549 61.6442 29.4209 60.4336C27.1515 58.011 24.1277 54.6017 21.1064 50.6523C18.0829 46.7 15.0768 42.226 12.8301 37.6738C10.578 33.1107 9.125 28.5399 9.125 24.375L9.13184 23.7949C9.28035 17.8057 11.7249 12.0934 15.9717 7.84668C20.3553 3.46302 26.3006 1 32.5 1ZM32.5 11.1875C29.0025 11.1875 25.6479 12.5767 23.1748 15.0498C20.7017 17.5229 19.3125 20.8775 19.3125 24.375C19.3125 27.8725 20.7017 31.2271 23.1748 33.7002C25.6479 36.1733 29.0025 37.5625 32.5 37.5625C35.9975 37.5625 39.3521 36.1733 41.8252 33.7002C44.2983 31.2271 45.6875 27.8725 45.6875 24.375C45.6875 20.8775 44.2983 17.5229 41.8252 15.0498C39.3521 12.5767 35.9975 11.1875 32.5 11.1875Z" fill="#EFF0EB" stroke="#1A1A1A" stroke-width="2"/>
</g>
<defs>
<clipPath id="clip0_323_3229">
<rect width="65" height="65" fill="white"/>
</clipPath>
</defs>
</svg>
