<svg width="16" height="16" viewBox="0 0 16 16" fill="none" xmlns="http://www.w3.org/2000/svg">
<g clip-path="url(#clip0_923_2384)">
<path d="M0.785664 0.785664C0.885559 0.685516 1.00423 0.606059 1.13488 0.551846C1.26553 0.497632 1.40559 0.469727 1.54704 0.469727C1.6885 0.469727 1.82856 0.497632 1.95921 0.551846C2.08986 0.606059 2.20853 0.685516 2.30842 0.785664L7.99942 6.47881L13.6904 0.785664C13.7904 0.685678 13.9091 0.606365 14.0397 0.552253C14.1704 0.498141 14.3104 0.47029 14.4518 0.47029C14.5932 0.47029 14.7332 0.498141 14.8639 0.552253C14.9945 0.606365 15.1132 0.685678 15.2132 0.785664C15.3132 0.88565 15.3925 1.00435 15.4466 1.13499C15.5007 1.26563 15.5285 1.40564 15.5285 1.54704C15.5285 1.68845 15.5007 1.82846 15.4466 1.9591C15.3925 2.08974 15.3132 2.20844 15.2132 2.30842L9.52003 7.99942L15.2132 13.6904C15.3132 13.7904 15.3925 13.9091 15.4466 14.0397C15.5007 14.1704 15.5285 14.3104 15.5285 14.4518C15.5285 14.5932 15.5007 14.7332 15.4466 14.8639C15.3925 14.9945 15.3132 15.1132 15.2132 15.2132C15.1132 15.3132 14.9945 15.3925 14.8639 15.4466C14.7332 15.5007 14.5932 15.5285 14.4518 15.5285C14.3104 15.5285 14.1704 15.5007 14.0397 15.4466C13.9091 15.3925 13.7904 15.3132 13.6904 15.2132L7.99942 9.52003L2.30842 15.2132C2.20844 15.3132 2.08974 15.3925 1.9591 15.4466C1.82846 15.5007 1.68845 15.5285 1.54704 15.5285C1.40564 15.5285 1.26563 15.5007 1.13499 15.4466C1.00435 15.3925 0.88565 15.3132 0.785664 15.2132C0.685678 15.1132 0.606365 14.9945 0.552253 14.8639C0.498141 14.7332 0.47029 14.5932 0.47029 14.4518C0.47029 14.3104 0.498141 14.1704 0.552253 14.0397C0.606365 13.9091 0.685678 13.7904 0.785664 13.6904L6.47881 7.99942L0.785664 2.30842C0.685516 2.20853 0.606059 2.08986 0.551846 1.95921C0.497632 1.82856 0.469727 1.6885 0.469727 1.54704C0.469727 1.40559 0.497632 1.26553 0.551846 1.13488C0.606059 1.00423 0.685516 0.885559 0.785664 0.785664Z" fill="black"/>
</g>
<defs>
<clipPath id="clip0_923_2384">
<rect width="16" height="16" fill="white"/>
</clipPath>
</defs>
</svg>
