<svg width="30" height="30" viewBox="0 0 30 30" fill="none" xmlns="http://www.w3.org/2000/svg">
<g clip-path="url(#clip0_899_5358)">
<path d="M5.65745 20.6736C5.7924 20.6736 5.92216 20.6218 6.02597 20.5234C6.22839 20.3213 6.22839 19.9949 6.02597 19.7928L1.76991 15.5441H14.481V28.2332L10.2301 23.9897C10.0277 23.7876 9.70071 23.7876 9.49829 23.9897C9.29586 24.1918 9.29586 24.5182 9.49829 24.7202L14.6367 29.8498C14.7405 29.9534 14.8703 30 15.0052 30C15.1402 30 15.2699 29.9482 15.3737 29.8498L20.5121 24.7202C20.7146 24.5182 20.7146 24.1918 20.5121 23.9897C20.3097 23.7876 19.9827 23.7876 19.7803 23.9897L15.5294 28.2332V15.5441H28.2405L23.9896 19.7876C23.7872 19.9897 23.7872 20.3161 23.9896 20.5182C24.0934 20.6218 24.2232 20.6684 24.3581 20.6684C24.4931 20.6684 24.6229 20.6166 24.7267 20.5182L29.8651 15.3886C30.0675 15.1866 30.0675 14.8601 29.8651 14.6581L24.7267 9.52854C24.5242 9.32647 24.1972 9.32647 23.9948 9.52854C23.7924 9.73061 23.7924 10.057 23.9948 10.2591L28.2457 14.5026H15.5346V1.76688L19.8374 6.06222C19.9412 6.16585 20.071 6.21248 20.2059 6.21248C20.3408 6.21248 20.4706 6.16067 20.5744 6.06222C20.7768 5.86015 20.7768 5.53372 20.5744 5.33165L15.3685 0.150303C15.1661 -0.0517694 14.8391 -0.0517694 14.6367 0.150303L9.44638 5.33165C9.24396 5.53372 9.24396 5.86015 9.44638 6.06222C9.64881 6.26429 9.9758 6.26429 10.1782 6.06222L14.481 1.76688V14.5078H1.76991L6.02078 10.2643C6.2232 10.0622 6.2232 9.7358 6.02078 9.53372C5.81836 9.33165 5.49136 9.33165 5.28894 9.53372L0.150535 14.6581C-0.0518873 14.8601 -0.0518873 15.1866 0.150535 15.3886L5.28894 20.5182C5.39275 20.6218 5.52251 20.6684 5.65745 20.6684V20.6736Z" fill="white"/>
</g>
<defs>
<clipPath id="clip0_899_5358">
<rect width="30" height="30" fill="white"/>
</clipPath>
</defs>
</svg>
