<svg width="24" height="24" viewBox="0 0 24 24" fill="none" xmlns="http://www.w3.org/2000/svg">
<g clip-path="url(#clip0_153_6550)">
<path d="M23.9991 12.0735C23.9991 5.4045 18.6261 -0.00149536 11.9991 -0.00149536C5.36909 4.63868e-06 -0.00390625 5.40451 -0.00390625 12.075C-0.00390625 18.1005 4.38509 23.0955 10.1211 24.0015V15.564H7.07609V12.075H10.1241V9.4125C10.1241 6.387 11.9166 4.716 14.6571 4.716C15.9711 4.716 17.3436 4.9515 17.3436 4.9515V7.9215H15.8301C14.3406 7.9215 13.8756 8.853 13.8756 9.8085V12.0735H17.2026L16.6716 15.5625H13.8741V24C19.6101 23.094 23.9991 18.099 23.9991 12.0735Z" fill="#1A1A1A"/>
</g>
<defs>
<clipPath id="clip0_153_6550">
<rect width="24" height="24" fill="white"/>
</clipPath>
</defs>
</svg>
