<?xml version="1.0" encoding="UTF-8"?>
<svg xmlns="http://www.w3.org/2000/svg" width="56" height="57" viewBox="0 0 56 57" fill="none">
  <rect width="56" height="56.0028" fill="#1A1A1A"/>
  <path d="M42.2466 13.7366V8H13.7534V13.7366H8V42.2634H13.7534V48.0028H42.2466V42.2634H48V13.7366H42.2466ZM42.2466 39.0667V19.4956H25.2295V22.6979L39.0499 22.6895V44.8006H16.9333V42.2634H36.5127V25.2239H33.3105C33.3105 25.2239 33.3105 34.3695 33.3105 39.0499C25.9392 39.0555 11.1994 39.0499 11.1994 39.0499V16.9333H13.7534V36.5127H30.7817V33.3105H16.9528V11.2022H39.0667V13.7394H19.4873V30.7733H22.6895V16.9333H44.8034V39.0667H42.2494H42.2466Z" fill="#F0F5E2"/>
<script xmlns=""/></svg>