<svg width="16" height="16" viewBox="0 0 16 16" fill="none" xmlns="http://www.w3.org/2000/svg">
<path d="M6.5 14.5V10.995C6.5 10.75 6.75 10.5 7 10.5H9C9.25 10.5 9.5 10.75 9.5 11V14.5C9.5 14.6326 9.55268 14.7598 9.64645 14.8535C9.74022 14.9473 9.86739 15 10 15H14C14.1326 15 14.2598 14.9473 14.3536 14.8535C14.4473 14.7598 14.5 14.6326 14.5 14.5V7.49999C14.5001 7.43429 14.4873 7.3692 14.4622 7.30846C14.4372 7.24772 14.4004 7.19251 14.354 7.14599L13 5.79299V2.49999C13 2.36739 12.9473 2.24021 12.8536 2.14644C12.7598 2.05267 12.6326 1.99999 12.5 1.99999H11.5C11.3674 1.99999 11.2402 2.05267 11.1464 2.14644C11.0527 2.24021 11 2.36739 11 2.49999V3.79299L8.354 1.14599C8.30756 1.09943 8.25238 1.06249 8.19163 1.03728C8.13089 1.01207 8.06577 0.9991 8 0.9991C7.93423 0.9991 7.86911 1.01207 7.80837 1.03728C7.74762 1.06249 7.69245 1.09943 7.646 1.14599L1.646 7.14599C1.5996 7.19251 1.56282 7.24772 1.53777 7.30846C1.51272 7.3692 1.49988 7.43429 1.5 7.49999V14.5C1.5 14.6326 1.55268 14.7598 1.64645 14.8535C1.74022 14.9473 1.86739 15 2 15H6C6.13261 15 6.25979 14.9473 6.35355 14.8535C6.44732 14.7598 6.5 14.6326 6.5 14.5Z" fill="#9D9D9D"/>
</svg>
