<svg width="192" height="108" viewBox="0 0 192 108" fill="none" xmlns="http://www.w3.org/2000/svg">
<path d="M29.0123 101.609H28.1152V107.522H31.8628V106.713H29.0123V101.609Z" fill="#838383"/>
<path d="M38.2014 101.555C37.6171 101.544 37.0565 101.774 36.6492 102.187C36.0591 102.777 36.0591 103.42 36.0591 104.559C36.0591 105.698 36.0591 106.353 36.6492 106.932C37.5168 107.776 38.8978 107.776 39.7594 106.932C40.3496 106.342 40.326 105.698 40.326 104.559C40.326 103.42 40.3437 102.765 39.7594 102.187C39.3463 101.774 38.7856 101.544 38.2014 101.555ZM39.0866 106.401C38.6027 106.89 37.8178 106.896 37.3279 106.412L37.3161 106.401C37.021 106.088 36.9679 105.757 36.9679 104.565C36.9679 103.373 37.027 103.049 37.3161 102.73C37.8001 102.24 38.585 102.234 39.0748 102.718L39.0866 102.73C39.3817 103.043 39.4348 103.373 39.4348 104.565C39.4348 105.757 39.3699 106.082 39.0866 106.401Z" fill="#838383"/>
<path d="M49.6211 105.834L48.4348 101.609H47.7148L46.5227 105.834L45.4958 101.609H44.5457L46.0919 107.522H46.8768L48.0689 103.373L49.2729 107.522H50.0578L51.604 101.609H50.6539L49.6211 105.834Z" fill="#838383"/>
<path d="M56.1187 107.522H59.9016V106.713H57.0157V104.937H59.4767V104.14H57.0157V102.411H59.9016V101.609H56.1187V107.522Z" fill="#838383"/>
<path d="M68.9136 103.332C68.9136 102.329 68.1995 101.609 67.0782 101.609H64.7883V107.51H65.6736V105.02H66.7949L68.0401 107.51H69.0847L67.7214 104.896C68.4414 104.725 68.9372 104.075 68.9136 103.338V103.332ZM65.6677 104.264V102.411H66.9955C67.4913 102.358 67.9398 102.718 67.9929 103.214C67.9929 103.255 67.9988 103.296 67.9929 103.338C67.9929 103.928 67.5857 104.258 66.9896 104.258H65.6618L65.6677 104.264Z" fill="#838383"/>
<path d="M82.8236 104.483C83.3194 104.264 83.6322 103.769 83.6204 103.231C83.6204 102.234 82.9299 101.614 81.8322 101.614H79.5305V107.516H81.9207C82.9653 107.516 83.7089 106.926 83.7089 105.846C83.7266 105.25 83.3725 104.707 82.8236 104.489V104.483ZM80.4335 102.417H81.7613C82.3338 102.417 82.7233 102.712 82.7233 103.261C82.7233 103.81 82.3338 104.105 81.7613 104.105H80.4335V102.411V102.417ZM81.844 106.719H80.4335V104.919H81.844C82.3397 104.89 82.7705 105.273 82.7941 105.769C82.8177 106.265 82.44 106.696 81.9443 106.719C81.9089 106.719 81.8735 106.719 81.844 106.719Z" fill="#838383"/>
<path d="M92.8269 103.332C92.8269 102.329 92.1128 101.609 90.9915 101.609H88.7017V107.51H89.5869V105.02H90.7082L91.9535 107.51H92.9981L91.6348 104.896C92.3548 104.725 92.8505 104.075 92.8269 103.338V103.332ZM89.5928 104.264V102.411H90.9207C91.4164 102.358 91.8649 102.718 91.9181 103.214C91.9181 103.255 91.924 103.296 91.9181 103.338C91.9181 103.928 91.5108 104.258 90.9148 104.258H89.5869L89.5928 104.264Z" fill="#838383"/>
<path d="M99.7081 101.555C99.1239 101.544 98.5632 101.774 98.156 102.187C97.5658 102.777 97.5836 103.42 97.5836 104.559C97.5836 105.698 97.5836 106.353 98.156 106.932C99.0236 107.776 100.405 107.776 101.272 106.932C101.862 106.342 101.833 105.698 101.833 104.559C101.833 103.42 101.85 102.765 101.272 102.187C100.859 101.774 100.298 101.544 99.714 101.555H99.7081ZM100.593 106.401C100.109 106.89 99.3245 106.896 98.8347 106.412L98.8229 106.401C98.5278 106.088 98.4747 105.757 98.4747 104.565C98.4747 103.373 98.5337 103.049 98.8229 102.73C99.3068 102.24 100.092 102.234 100.582 102.718L100.593 102.73C100.888 103.043 100.942 103.373 100.942 104.565C100.942 105.757 100.883 106.082 100.587 106.401H100.593Z" fill="#838383"/>
<path d="M108.195 101.609L106.029 107.51H106.985L107.392 106.33H109.723L110.13 107.51H111.087L108.921 101.609H108.201H108.195ZM107.658 105.569L108.578 102.942L109.464 105.569H107.658Z" fill="#838383"/>
<path d="M119.184 102.163C118.771 101.786 118.216 101.585 117.655 101.609H115.59V107.51H117.655C118.216 107.534 118.771 107.333 119.184 106.955C119.821 106.318 119.774 105.368 119.774 104.512C119.774 103.656 119.821 102.807 119.184 102.163ZM118.57 106.318C118.31 106.595 117.944 106.737 117.567 106.713H116.481V102.411H117.567C117.944 102.388 118.31 102.535 118.57 102.807C118.865 103.143 118.883 103.692 118.883 104.518C118.883 105.344 118.877 105.97 118.57 106.312V106.318Z" fill="#838383"/>
<path d="M128.066 104.134H125.664V101.609H124.767V107.522H125.664V104.937H128.066V107.522H128.963V101.609H128.066V104.134Z" fill="#838383"/>
<path d="M134.162 107.522H137.945V106.713H135.065V104.937H137.52V104.14H135.065V102.411H137.945V101.609H134.162V107.522Z" fill="#838383"/>
<path d="M144.289 101.609L142.123 107.51H143.073L143.481 106.33H145.812L146.219 107.51H147.175L145.009 101.609H144.289ZM143.752 105.569L144.673 102.942L145.558 105.569H143.752Z" fill="#838383"/>
<path d="M150.657 102.411H152.286V107.522H153.183V102.411H154.812V101.609H150.657V102.411Z" fill="#838383"/>
<path d="M162.785 101.609V104.134H160.383V101.609H159.486V107.522H160.383V104.937H162.785V107.522H163.682V101.609H162.785Z" fill="#838383"/>
<path d="M105.232 7.44197C106.584 6.62754 108.006 5.93705 109.481 5.37639C109.936 5.19935 110.396 5.04 110.857 4.89836C107.912 2.73246 104.536 1.23344 100.959 0.507542C101.355 1.00918 101.738 1.51672 102.104 2.04197C103.302 3.74754 104.353 5.55344 105.232 7.44197Z" fill="#838383"/>
<path d="M104.134 35.5102C107.463 27.4426 107.551 18.4013 104.388 10.2689C101.29 12.5233 98.7462 15.4623 96.958 18.8557C100.003 25.2118 100.428 32.5062 98.1383 39.1692C99.9678 37.6879 101.986 36.4603 104.134 35.5102Z" fill="#838383"/>
<path d="M120.093 17.7757C119.797 17.9233 119.485 18.0708 119.19 18.2361C112.887 21.6295 108.336 27.5548 106.69 34.5187C110.685 33.2262 114.935 32.8839 119.083 33.5331C119.343 33.5685 119.603 33.6157 119.856 33.663C121.645 28.5226 121.733 22.9515 120.11 17.758L120.098 17.7698L120.093 17.7757Z" fill="#838383"/>
<path d="M97.7075 30.4466C97.7075 27.2538 97.0938 24.0846 95.9016 21.122C93.4879 27.1003 93.4879 33.7869 95.9016 39.7652C97.0997 36.8026 97.7134 33.6393 97.7075 30.4466Z" fill="#838383"/>
<path d="M87.415 10.263C84.2458 18.3954 84.3403 27.4426 87.6688 35.5102C89.817 36.4603 91.8353 37.6879 93.659 39.1633C91.3691 32.5003 91.794 25.2 94.8393 18.8498C93.0511 15.4564 90.5075 12.5233 87.4091 10.263H87.415Z" fill="#838383"/>
<path d="M108.584 22.5679C108.584 23.6066 108.543 24.6334 108.455 25.6544C110.975 21.7711 114.445 18.602 118.54 16.4538C118.836 16.2944 119.148 16.141 119.461 15.9934C117.986 12.2813 115.649 8.97049 112.651 6.33246C112.202 6.45049 111.765 6.58033 111.311 6.72197C109.446 7.32984 107.664 8.15607 106 9.18885C107.711 13.438 108.59 17.9823 108.584 22.5679Z" fill="#838383"/>
<path d="M86.5711 7.44197C87.4563 5.55344 88.5009 3.74164 89.7049 2.04197C90.0767 1.52262 90.4544 1.00918 90.8498 0.507542C87.2675 1.23344 83.8858 2.72656 80.9409 4.88656C81.4071 5.0341 81.8675 5.19344 82.316 5.37049C83.7914 5.93705 85.2137 6.62754 86.5652 7.44197H86.5711Z" fill="#838383"/>
<path d="M98.3979 47.5731C97.9848 47.0833 97.5953 46.5816 97.2176 46.0682C96.7455 45.4131 96.3028 44.7285 95.8897 44.0262C95.4766 44.7226 95.034 45.4072 94.5619 46.0623C94.196 46.5816 93.8005 47.0833 93.3815 47.5731C92.7501 48.3344 92.0773 49.0603 91.3691 49.7508C91.2097 49.9043 91.0386 50.0459 90.8674 50.2112C94.1783 50.8721 97.5894 50.8721 100.9 50.2112C100.735 50.0577 100.564 49.9161 100.404 49.7508C99.7022 49.0603 99.0353 48.3344 98.4097 47.5731H98.3979Z" fill="#838383"/>
<path d="M95.9016 16.8728C97.855 13.5561 100.487 10.6997 103.633 8.48656C102.488 5.98426 101.048 3.62951 99.3422 1.47541C98.9704 1.00328 98.575 0.548852 98.1619 0.0944262C97.4301 0.0413115 96.6688 0 95.9016 0C95.1343 0 94.3789 0.0413115 93.6294 0.10623C93.234 0.554754 92.8445 1.01508 92.4668 1.48721C90.7553 3.64131 89.3153 5.99016 88.1704 8.48656C91.316 10.6997 93.954 13.5561 95.9016 16.8728Z" fill="#838383"/>
<path d="M114.952 35.1148C111.995 35.1148 109.056 35.64 106.289 36.6728C106.052 36.7554 105.816 36.8498 105.58 36.9443C105.144 37.1154 104.695 37.3043 104.288 37.5108C103.798 37.741 103.326 37.9889 102.854 38.2485C100.782 39.3993 98.8879 40.8393 97.2295 42.5213C97.6249 43.2413 98.0557 43.9377 98.5338 44.6164C98.8997 45.1475 99.2892 45.661 99.6964 46.1567C100.593 47.2544 101.579 48.2754 102.647 49.2079C102.812 49.3554 102.984 49.503 103.155 49.6328C110.313 47.4964 116.168 42.3148 119.16 35.4689C118.906 35.4275 118.647 35.3862 118.393 35.3508C117.254 35.1915 116.109 35.103 114.958 35.103L114.952 35.1148Z" fill="#838383"/>
<path d="M93.2695 44.6341C93.7416 43.9554 94.1784 43.259 94.5738 42.539C92.9154 40.8512 91.021 39.4171 88.9495 38.2662C88.4833 38.0007 88.0052 37.7528 87.5154 37.5226C87.0964 37.3279 86.6656 37.139 86.2347 36.9561C85.9987 36.8616 85.7567 36.7672 85.5147 36.6787C81.6551 35.2446 77.4944 34.7961 73.4164 35.3626C73.1626 35.398 72.9029 35.4393 72.6492 35.4807C75.6413 42.3325 81.4957 47.5141 88.6544 49.6564C88.8256 49.5148 88.9967 49.3613 89.162 49.2256C90.2302 48.2931 91.2157 47.2721 92.1128 46.1744C92.52 45.6787 92.9036 45.1652 93.2695 44.6341Z" fill="#838383"/>
<path d="M76.8511 33.2321C79.6544 33.2321 82.4459 33.6689 85.1134 34.5364C83.4668 27.5666 78.9108 21.6354 72.6078 18.242C72.3127 18.0826 72.0177 17.9292 71.699 17.7816C70.076 22.9751 70.1645 28.5462 71.9527 33.6866C72.2124 33.6393 72.4662 33.5921 72.7318 33.5508C74.095 33.3384 75.476 33.238 76.8511 33.238V33.2321Z" fill="#838383"/>
<path d="M83.3488 25.6721C83.2603 24.6452 83.2131 23.6125 83.2131 22.5738C83.2072 17.9882 84.0865 13.4439 85.8039 9.19475C84.1338 8.16787 82.3515 7.33574 80.4924 6.72787C80.0557 6.58623 79.6072 6.45639 79.1528 6.33836C76.1547 8.97639 73.8177 12.2872 72.3423 15.9993C72.6374 16.1469 72.9561 16.2944 73.2629 16.4597C77.3587 18.6138 80.8347 21.7888 83.3488 25.678V25.6721Z" fill="#838383"/>
<path d="M10.682 87.0256C9.79672 87.179 8.78164 87.3207 7.60721 87.4328C6.43279 87.5449 5.15213 87.6098 3.75344 87.6098L3.79475 68.0164C3.82426 67.261 3.85967 66.6118 3.90098 66.063C3.9423 65.5141 3.99541 65.0538 4.06033 64.6879C4.11344 64.3751 4.18426 64.0682 4.26689 63.7613V63.6905H0V63.7613C0.0708197 64.0092 0.135738 64.3161 0.200656 64.6879C0.265574 65.0538 0.318689 65.5141 0.365902 66.063C0.413115 66.6118 0.448525 67.2669 0.472131 68.0164V84.8656C0.448525 85.6151 0.413115 86.2643 0.365902 86.8131C0.318689 87.362 0.265574 87.8105 0.200656 88.1764C0.135738 88.5423 0.0708197 88.8492 0 89.1089V89.1797H8.26229L9.17705 89.1974L10.2689 89.2151C10.6525 89.2151 11.0184 89.2269 11.3725 89.2387L12.3226 89.2741C12.6177 89.2741 12.8184 89.2977 12.96 89.3095L13.4734 86.4295C12.6236 86.6538 11.697 86.8485 10.6761 87.0138L10.682 87.0256Z" fill="#2D2D2D"/>
<path d="M20.7856 66.0571C20.8269 65.5082 20.8801 65.0479 20.945 64.682C21.0099 64.3161 21.0807 64.0092 21.1515 63.7554V63.6846H16.9023V63.7554C16.985 64.0623 17.0499 64.3692 17.0971 64.682C17.1561 65.0479 17.2092 65.5082 17.2564 66.0571C17.3037 66.6059 17.3391 67.261 17.3627 68.0105V84.8597C17.3391 85.6092 17.3037 86.2584 17.2564 86.8072C17.2092 87.3502 17.1561 87.8046 17.0971 88.1705C17.0499 88.4833 16.985 88.7902 16.9023 89.0971V89.1679H21.1515V89.1029C21.0807 88.8551 21.0158 88.5482 20.945 88.1764C20.8741 87.8046 20.8269 87.3561 20.7856 86.8131C20.7443 86.2702 20.7089 85.621 20.6794 84.8656V68.0105C20.7089 67.261 20.7443 66.6059 20.7856 66.0571Z" fill="#2D2D2D"/>
<path d="M72.8204 87.0256C71.9352 87.179 70.9201 87.3207 69.7457 87.4328C68.5713 87.5449 67.2906 87.6098 65.8919 87.6098L65.9332 68.0164C65.9627 67.2669 65.9981 66.6118 66.0395 66.063C66.0808 65.5141 66.1339 65.0538 66.1988 64.6879C66.2637 64.322 66.3286 64.0151 66.3995 63.7613V63.6905H62.1326V63.7613C62.2211 64.0682 62.286 64.3751 62.3391 64.6879C62.404 65.0538 62.4572 65.5141 62.5044 66.063C62.5516 66.6118 62.587 67.2669 62.6106 68.0164V84.8656C62.587 85.6151 62.5516 86.2643 62.5044 86.8131C62.4572 87.3561 62.404 87.8105 62.3391 88.1764C62.286 88.4892 62.2211 88.7961 62.1326 89.1029V89.1738L71.3037 89.1974L72.3955 89.2151C72.7791 89.2151 73.145 89.2269 73.4932 89.2387L74.4434 89.2741C74.7267 89.2859 74.9391 89.2977 75.0808 89.3095L75.5942 86.4295C74.7562 86.6538 73.8237 86.8485 72.8086 87.0138L72.8204 87.0256Z" fill="#2D2D2D"/>
<path d="M90.3246 87.0256C89.4453 87.179 88.4243 87.3147 87.2499 87.4328C86.0695 87.5508 84.0335 87.6098 82.6348 87.6098V76.4675C83.4256 76.4675 85.0191 76.497 85.8807 76.562C86.7423 76.6269 87.545 76.7036 88.2768 76.7862C89.1266 76.8806 89.9646 76.981 90.785 77.0813L91.3338 74.5082C90.72 74.6026 90.0118 74.6852 89.2033 74.7561C88.5187 74.8151 87.6807 74.8741 86.6951 74.9331C85.7095 74.9921 83.8505 75.0275 82.6289 75.0393V65.3429C83.0656 65.3193 83.5141 65.2957 83.9273 65.2721C84.2932 65.2485 85.4381 65.2308 85.8335 65.2072C86.2289 65.1836 86.5712 65.1836 86.8545 65.1836C87.6984 65.1836 88.442 65.2131 89.0853 65.278C89.7286 65.3429 90.2774 65.4138 90.7318 65.4846C91.1922 65.5613 91.6466 65.6557 92.0951 65.7797L92.9804 63.419C92.3961 63.5016 91.8 63.5488 91.2099 63.5606C90.3482 63.5961 89.3036 63.6256 88.082 63.6374L78.8813 63.7023V63.7731C78.9699 64.08 79.0348 64.3869 79.0879 64.6997C79.1528 65.0656 79.2059 65.5259 79.2531 66.0747C79.3004 66.6236 79.3358 67.2787 79.3594 68.0282C79.383 68.7777 79.3948 69.657 79.3948 70.6662V82.2393C79.3948 83.2426 79.383 84.122 79.3594 84.8774C79.3358 85.6328 79.3004 86.282 79.2531 86.8249C79.2059 87.3679 79.1528 87.8223 79.0879 88.1882C79.0348 88.501 78.9699 88.8079 78.8813 89.1147V89.1856L88.8138 89.2092L89.9056 89.2269C90.2892 89.2269 90.6551 89.2387 91.0092 89.2505L91.9594 89.2859C92.2545 89.2859 92.4551 89.3095 92.5968 89.3213L93.1102 86.4413C92.2722 86.6479 91.3397 86.8485 90.3187 87.0138L90.3246 87.0256Z" fill="#2D2D2D"/>
<path d="M129.801 88.6072C129.635 88.3475 129.447 88.0171 129.234 87.6512C129.022 87.2853 128.791 86.8426 128.55 86.3646L129.24 87.6452L118.204 63.1535H116.782L106.601 85.739C106.218 86.6066 105.87 87.3266 105.557 87.899C105.338 88.3357 105.067 88.743 104.76 89.1148V89.1856H108.384V89.1148C108.348 89.0498 108.325 88.9849 108.313 88.9141C108.289 88.7902 108.277 88.6603 108.277 88.5305C108.277 87.9875 108.378 87.4505 108.572 86.9489L111.187 80.8171C111.889 80.7935 112.674 80.7816 113.548 80.7816H119.803C120.907 80.7816 121.792 80.7935 122.459 80.8171L124.607 85.6505C124.849 86.1875 125.038 86.7423 125.18 87.3089C125.274 87.7102 125.327 88.1174 125.327 88.5246C125.327 88.619 125.321 88.7252 125.31 88.8433C125.304 88.9318 125.286 89.0262 125.256 89.1089V89.1797H130.119V89.1089C130.072 89.0321 129.96 88.861 129.795 88.6013L129.801 88.6072ZM119.986 79.1941L117.991 79.2118L115.867 79.2295H111.836L116.74 67.8748L121.733 79.1587C121.214 79.1764 120.63 79.1882 119.992 79.1941H119.986Z" fill="#2D2D2D"/>
<path d="M151.111 86.2702C150.557 86.6656 149.966 87.0079 149.341 87.2794C148.715 87.5626 148.066 87.7692 147.393 87.9108C146.726 88.0525 146.048 88.1233 145.369 88.1233C143.681 88.1587 142.005 87.8223 140.459 87.1377C139.096 86.5121 137.898 85.5856 136.947 84.4289C135.985 83.219 135.277 81.8321 134.852 80.3508C134.368 78.7043 134.126 76.9928 134.144 75.2813C134.121 73.7764 134.374 72.2833 134.888 70.8728C135.342 69.6452 136.056 68.5298 136.971 67.6033C137.88 66.7062 138.966 66.0157 140.158 65.5731C142.873 64.6171 145.835 64.6407 148.538 65.638C149.766 66.1043 150.899 66.8007 151.867 67.68L152.026 67.6092L150.822 64.322C148.774 63.6079 146.626 63.2538 144.46 63.2774C143.079 63.2656 141.704 63.4367 140.364 63.779C139.161 64.0977 137.998 64.5757 136.918 65.1895C135.897 65.7738 134.953 66.4938 134.121 67.3318C133.312 68.1403 132.622 69.0492 132.055 70.0407C131.5 71.0203 131.075 72.0649 130.786 73.1508C130.497 74.2367 130.349 75.3521 130.355 76.4734C130.332 78.3384 130.703 80.1915 131.447 81.903C132.155 83.5023 133.194 84.9305 134.504 86.0872C135.879 87.2852 137.473 88.2 139.196 88.7784C141.132 89.4334 143.168 89.7521 145.21 89.7285C146.296 89.7285 147.382 89.64 148.456 89.4571C149.465 89.2918 150.45 89.0262 151.406 88.6662L152.829 85.0426L152.634 84.9187C152.185 85.4262 151.684 85.8807 151.135 86.2761" fill="#2D2D2D"/>
<path d="M175.255 88.7548C175.001 88.5895 174.771 88.3948 174.553 88.1882C174.281 87.9285 174.028 87.6512 173.791 87.362C173.526 87.0433 173.237 86.6656 172.93 86.2289L166.692 77.4649C167.365 77.1698 167.99 76.7862 168.557 76.32C169.111 75.8715 169.589 75.3403 169.985 74.7502C170.392 74.1364 170.699 73.4695 170.906 72.7672C171.13 72 171.236 71.2033 171.23 70.4066C171.248 69.4033 171.047 68.4 170.64 67.4852C170.256 66.6472 169.69 65.9036 168.982 65.3075C168.238 64.6997 167.382 64.2393 166.468 63.962C165.447 63.6433 164.384 63.4898 163.316 63.5016C162.307 63.4898 161.304 63.543 160.306 63.6669C159.687 63.7672 159.061 63.8203 158.435 63.8321H157.574C157.279 63.8321 157.043 63.8085 156.818 63.7849L156.069 63.7141V63.7849C156.157 64.0918 156.222 64.4046 156.275 64.7174C156.34 65.0892 156.393 65.5495 156.435 66.0925C156.476 66.6354 156.511 67.2728 156.541 68.04V84.8951C156.511 85.6446 156.476 86.2879 156.435 86.8308C156.393 87.3738 156.34 87.8282 156.275 88.1941C156.222 88.5069 156.157 88.8138 156.069 89.1207V89.1915H160.336V89.1089C160.265 88.861 160.2 88.5541 160.135 88.1823C160.07 87.8105 160.017 87.362 159.976 86.819C159.934 86.2761 159.893 85.6269 159.87 84.8715L159.828 78.2321C160.165 78.2912 160.507 78.3384 160.849 78.3561C161.186 78.3797 161.522 78.3915 161.852 78.3915C162.148 78.3915 162.413 78.3915 162.685 78.3679C162.956 78.3443 163.228 78.3266 163.499 78.303L169.79 87.1731C170.044 87.5272 170.274 87.899 170.475 88.2826C170.634 88.56 170.752 88.8551 170.823 89.1679H175.957V89.1089C175.709 89.0203 175.479 88.9023 175.261 88.7548H175.255ZM164.184 76.6328C163.405 76.9102 162.578 77.0459 161.752 77.0341C161.457 77.0341 161.127 77.0223 160.796 76.9928C160.466 76.9633 160.141 76.9161 159.822 76.8453V65.0774C160.182 64.9534 160.548 64.8649 160.92 64.8118C161.569 64.7174 162.224 64.6761 162.873 64.6879C163.599 64.6702 164.319 64.8118 164.986 65.101C165.576 65.3666 166.09 65.7738 166.485 66.2813C166.898 66.8302 167.199 67.4557 167.37 68.1167C167.577 68.9075 167.677 69.7161 167.666 70.5305C167.683 71.4984 167.542 72.4662 167.241 73.381C166.987 74.1364 166.58 74.8328 166.043 75.4171C165.529 75.96 164.892 76.3731 164.189 76.6269L164.184 76.6328Z" fill="#2D2D2D"/>
<path d="M59.0814 63.543H24.3679L23.8545 66.423C24.5981 66.2105 25.4479 66.0157 26.3981 65.8328C27.2125 65.6912 28.1863 65.5613 29.3076 65.4374C30.187 65.3371 31.1489 65.278 32.1876 65.2603H33.0906L33.0433 84.8656C33.0197 85.6151 32.9843 86.2643 32.9371 86.8131C32.8899 87.3561 32.8368 87.8105 32.7778 88.1764C32.7306 88.4892 32.6656 88.7961 32.583 89.103V89.1738H36.8263V89.1089C36.7555 88.861 36.6906 88.5541 36.6256 88.1823C36.5607 87.8105 36.5076 87.362 36.4663 86.819C36.425 86.2761 36.3896 85.6269 36.3601 84.8715L36.3188 65.2721H47.0892L47.0538 84.8715C47.0302 85.621 46.9948 86.2702 46.9476 86.819C46.9004 87.362 46.8473 87.8164 46.7883 88.1823C46.741 88.4951 46.6761 88.802 46.5935 89.1089V89.1797H50.8427V89.1089C50.7601 88.802 50.6892 88.4951 50.6361 88.1823C50.5712 87.8164 50.5181 87.362 50.4768 86.819C50.4355 86.2761 50.4001 85.6269 50.3706 84.8715L50.3292 65.2721H51.2322C52.2709 65.2957 53.2329 65.3489 54.1122 65.4492C55.2335 65.5731 56.2073 65.703 57.0276 65.8446C57.9719 66.0216 58.8276 66.2164 59.583 66.4348L59.0755 63.543H59.0814Z" fill="#2D2D2D"/>
<path d="M189.006 87.0256C188.132 87.179 187.106 87.3147 185.931 87.4328C184.751 87.5508 182.715 87.6098 181.316 87.6098V76.4675C182.107 76.4675 183.694 76.497 184.562 76.562C185.43 76.6269 186.226 76.7036 186.964 76.7862C187.814 76.8806 188.652 76.981 189.466 77.0813L190.015 74.5082C189.401 74.6026 188.687 74.6852 187.885 74.7561C187.194 74.8151 186.362 74.8741 185.382 74.9331C184.397 74.9921 182.538 75.0275 181.316 75.0393V65.3429C181.753 65.3193 182.184 65.2957 182.609 65.2721C182.974 65.2485 184.119 65.2308 184.515 65.2072C184.91 65.1836 185.252 65.1836 185.536 65.1836C186.38 65.1836 187.123 65.2131 187.767 65.278C188.41 65.3429 188.959 65.4138 189.407 65.4846C189.868 65.5613 190.328 65.6557 190.776 65.7797L191.644 63.419C191.06 63.5016 190.464 63.5488 189.873 63.5606C189.012 63.5961 187.967 63.6256 186.746 63.6374L177.545 63.7023V63.7731C177.616 64.021 177.681 64.3279 177.746 64.6997C177.81 65.0715 177.864 65.5259 177.911 66.0747C177.958 66.6236 177.993 67.2787 178.017 68.0282C178.041 68.7777 178.052 69.657 178.052 70.6662V82.2393C178.052 83.2426 178.041 84.122 178.017 84.8774C177.993 85.6328 177.958 86.282 177.911 86.8249C177.864 87.3679 177.81 87.8223 177.746 88.1882C177.681 88.5541 177.616 88.861 177.545 89.1147V89.1856L187.471 89.2092L188.563 89.2269C188.947 89.2269 189.313 89.2387 189.661 89.2505L190.611 89.2859C190.906 89.2859 191.107 89.3095 191.249 89.3213L191.762 86.4413C190.93 86.6479 190.003 86.8485 188.982 87.0138L189.006 87.0256Z" fill="#2D2D2D"/>
</svg>
