<svg width="114" height="120" viewBox="0 0 114 120" fill="none" xmlns="http://www.w3.org/2000/svg">
<g clip-path="url(#clip0_1243_330)">
<path d="M0 94.3185V94.2678L1.8822 92.9481C2.12807 92.779 2.14926 92.7028 2.14926 92.411V79.0584C2.14926 78.7666 2.12383 78.6904 1.8822 78.5212L0 77.2016V77.1509H7.73226V77.2016L5.85007 78.5212C5.57876 78.7158 5.55756 78.7666 5.55756 79.0584V93.3373C5.55756 93.7771 5.62963 93.849 5.94757 93.849H9.10152C9.56783 93.849 9.73739 93.7983 9.88577 93.5318L12.6751 88.4564H12.726V94.3143H0V94.3185Z" fill="white"/>
<path d="M31.2173 85.7241C31.2173 91.3621 28.3304 94.5596 23.3663 94.5596C18.4022 94.5596 15.4645 91.3621 15.4645 85.7241C15.4645 80.0862 18.3768 76.9141 23.3663 76.9141C28.3558 76.9141 31.2173 80.1116 31.2173 85.7241ZM27.3511 85.7241C27.3511 79.5998 25.7106 77.3286 23.3621 77.3286C21.0136 77.3286 19.3518 79.5998 19.3518 85.7241C19.3518 91.8485 20.9924 94.1197 23.3621 94.1451C25.7106 94.1451 27.3511 91.8485 27.3511 85.7241Z" fill="white"/>
<path d="M42.1036 76.914C43.6212 76.914 45.2829 77.062 46.9489 77.4257V82.941H46.8981L43.8628 77.8149C43.6424 77.4469 43.5449 77.4004 43.0786 77.3496C42.8327 77.3242 42.5911 77.3242 42.3706 77.3242C39.0683 77.3242 37.8686 80.7671 37.8686 85.7452C37.8686 91.0406 39.2379 94.1408 42.4681 94.1408C42.6631 94.1408 42.909 94.1408 43.0786 94.1154C43.5449 94.0647 43.6424 93.9928 43.8374 93.7009L46.8938 88.4056H46.9447V94.1408C45.355 94.458 43.6678 94.5553 42.3452 94.5553C36.5248 94.5553 33.9771 90.994 33.9771 85.7917C33.9771 80.5894 36.8894 76.9055 42.0993 76.9055L42.1036 76.914Z" fill="white"/>
<path d="M55.3848 92.4151C55.3848 92.707 55.4103 92.7789 55.6773 92.9523L57.5595 94.2719V94.3227H49.8273V94.2719L51.7095 92.9523C51.9553 92.7831 51.9765 92.707 51.9765 92.4151V79.0625C51.9765 78.7707 51.9511 78.6946 51.7095 78.5254L49.8273 77.2058V77.155H57.5595V77.2058L55.6773 78.5254C55.406 78.72 55.3848 78.7707 55.3848 79.0625V92.4151ZM58.2208 83.7277L63.9225 92.0768C64.143 92.394 64.3888 92.6858 64.6559 92.9058L66.2456 94.2719V94.3227H61.4002L55.601 85.8298L61.3748 79.7773C61.6461 79.4855 61.5698 79.3882 61.3027 79.1175L59.323 77.2142V77.1635H66.2456V77.2142L62.9433 79.1683C62.4049 79.4855 62.2353 79.5828 61.8199 79.9973L58.2251 83.7319L58.2208 83.7277Z" fill="white"/>
<path d="M67.5682 94.3185V94.2678L69.4504 92.9481C69.6963 92.779 69.7175 92.7028 69.7175 92.411V79.0584C69.7175 78.7666 69.6921 78.6904 69.4504 78.5212L67.5682 77.2016V77.1509H75.3005V77.2016L73.4183 78.5212C73.147 78.7158 73.1258 78.7666 73.1258 79.0584V93.3373C73.1258 93.7771 73.1979 93.849 73.5158 93.849H76.6698C77.1361 93.849 77.3056 93.7983 77.454 93.5318L80.2434 88.4564H80.2943V94.3143H67.5725L67.5682 94.3185Z" fill="white"/>
<path d="M82.6598 94.3185V94.2678L84.542 92.9481C84.7878 92.779 84.809 92.7028 84.809 92.411V79.0584C84.809 78.7666 84.7836 78.6904 84.542 78.5212L82.6598 77.2016V77.1509H95.4536V82.7169H95.4027L92.8338 78.0306C92.6388 77.6627 92.4904 77.6161 92.147 77.6161H88.5988C88.2809 77.6161 88.2088 77.688 88.2088 78.1279V85.4027H90.604C90.9219 85.3773 91.0194 85.3054 91.2653 84.9882L93.1263 82.645H93.1772V88.6002H93.1263L91.2653 86.2317C91.0194 85.9398 90.9219 85.8426 90.5785 85.8426H88.2046V93.3373C88.2046 93.7771 88.2767 93.849 88.5946 93.849H92.2657C92.732 93.849 92.8762 93.7983 93.05 93.5318L95.6189 88.7482H95.6698V94.3143H82.6555L82.6598 94.3185Z" fill="white"/>
<path d="M107.395 92.339C107.395 92.6562 107.421 92.707 107.688 92.8762L109.718 94.2677V94.3184H101.668V94.2677L103.724 92.8762C103.97 92.707 103.996 92.6562 103.996 92.339V87.8726C103.996 87.5554 103.97 87.4328 103.826 87.1875L99.6419 79.4517C99.4214 79.0372 99.2264 78.8172 98.9806 78.5465L97.7343 77.2058V77.155H104.928V77.2058L103.411 78.6481C103.216 78.8426 103.19 78.9187 103.313 79.1598L107.154 86.4346L110.359 80.1876C110.528 79.845 110.481 79.7477 110.286 79.5278L108.184 77.21V77.1593H114.004V77.21L111.558 79.4813C111.168 79.8239 111.045 79.9719 110.799 80.4075L107.595 86.6292C107.425 86.9464 107.4 87.0944 107.4 87.5343V92.3432L107.395 92.339Z" fill="white"/>
<path d="M27.8641 117.851C27.8641 118.143 27.8895 118.219 28.1566 118.389L30.0388 119.708V119.759H22.3065V119.708L24.1887 118.389C24.4092 118.219 24.4558 118.143 24.4558 117.851V111.19H17.8766V117.851C17.8766 118.143 17.902 118.219 18.1691 118.389L20.0513 119.708V119.759H12.3275V119.708L14.2097 118.389C14.4556 118.219 14.4768 118.143 14.4768 117.851V104.499C14.4768 104.207 14.4513 104.135 14.2097 103.962L12.3275 102.642V102.591H20.0598V102.642L18.1776 103.962C17.9063 104.156 17.8851 104.207 17.8851 104.499V110.725H24.4643V104.499C24.4643 104.207 24.4388 104.135 24.1972 103.962L22.315 102.642V102.591H30.0473V102.642L28.1651 103.962C27.8938 104.156 27.8726 104.207 27.8726 104.499V117.851H27.8641Z" fill="white"/>
<path d="M47.7544 111.165C47.7544 116.803 44.8675 120 39.9034 120C34.9393 120 32.0016 116.803 32.0016 111.165C32.0016 105.527 34.9139 102.354 39.9034 102.354C44.8929 102.354 47.7544 105.552 47.7544 111.165ZM43.8882 111.165C43.8882 105.04 42.2477 102.769 39.8992 102.769C37.5507 102.769 35.8889 105.04 35.8889 111.165C35.8889 117.289 37.5295 119.56 39.8992 119.586C42.2477 119.586 43.8882 117.289 43.8882 111.165Z" fill="white"/>
<path d="M68.2295 118.389L70.1117 119.708V119.759H62.3795V119.708L64.2617 118.389C64.5075 118.219 64.5542 118.143 64.5542 117.852V106.99C64.5542 106.55 64.5796 105.916 64.6262 105.429L58.8779 119.903H58.8271L53.1254 106.821C52.9303 106.406 52.7353 105.869 52.587 105.455V116.562C52.587 116.951 52.6378 117.001 52.9558 117.319L55.3297 119.708V119.759H49.361V119.708L51.7561 117.319C52.0486 117.001 52.0995 116.929 52.0995 116.562V105.214C52.0995 104.799 52.074 104.748 51.8536 104.554L49.7976 102.651V102.6H54.9864L60.3192 114.925L65.2367 102.6H70.1033V102.651L68.2211 104.093C67.9498 104.262 67.9286 104.338 67.9286 104.63V117.86C67.9286 118.152 67.954 118.228 68.2211 118.397L68.2295 118.389Z" fill="white"/>
<path d="M72.1678 119.759V119.708L74.05 118.389C74.2959 118.219 74.3171 118.143 74.3171 117.851V104.499C74.3171 104.207 74.2916 104.135 74.05 103.962L72.1678 102.642V102.591H84.9617V108.157H84.9108L82.3419 103.471C82.1468 103.103 81.9985 103.057 81.6551 103.057H78.1069C77.789 103.057 77.7169 103.128 77.7169 103.568V110.843H80.112C80.43 110.818 80.5275 110.746 80.7733 110.429L82.6343 108.085H82.6852V114.041H82.6343L80.7733 111.672C80.5275 111.38 80.43 111.283 80.0866 111.283H77.7127V118.778C77.7127 119.218 77.7847 119.289 78.1027 119.289H81.7738C82.2401 119.289 82.3842 119.239 82.558 118.972L85.127 114.189H85.1779V119.755H72.1636L72.1678 119.759Z" fill="white"/>
<path d="M89.0949 119.34V113.897H89.1457L91.8122 119.048C91.9817 119.34 92.058 119.437 92.3505 119.488C92.766 119.539 93.2069 119.585 93.5969 119.585C95.6529 119.585 97.2892 118.608 97.2892 116.485C97.2892 114.802 96.1404 113.994 94.0589 112.996L92.5667 112.29C90.6337 111.384 88.6752 109.9 88.6752 107.214C88.6752 104.334 90.9982 102.359 94.4489 102.359C95.7461 102.359 97.1874 102.507 98.8746 102.921V108.17H98.8238L96.0598 103.238C95.9115 102.972 95.7885 102.824 95.5215 102.799C95.2289 102.773 94.9576 102.773 94.6651 102.773C92.7066 102.773 91.3628 103.919 91.3628 105.848C91.3628 107.459 92.5116 108.288 94.1013 109.046L95.9115 109.9C98.2854 111.021 100.121 112.192 100.121 114.734C100.121 117.763 97.675 120.004 93.8343 120.004C92.3421 120.004 90.5065 119.759 89.0864 119.344L89.0949 119.34Z" fill="white"/>
<path d="M78.6155 8.68321V0H35.3886V8.68321H26.6602V51.8624H35.3886V60.5498H78.6155V51.8624H87.344V8.68321H78.6155ZM78.6155 47.0238V17.4003H52.7989V22.2473L73.7659 22.2346V55.7028H40.2128V51.8624H69.9167V26.0708H65.0586C65.0586 26.0708 65.0586 39.914 65.0586 46.9985C53.8757 47.0069 31.514 46.9985 31.514 46.9985V13.5218H35.3886V43.158H61.2222V38.311H40.2425V4.84703H73.7913V8.68744H44.0874V34.4706H48.9455V13.5218H82.4944V47.0238H78.6198H78.6155Z" fill="white"/>
</g>
<defs>
<clipPath id="clip0_1243_330">
<rect width="114" height="120" fill="white"/>
</clipPath>
</defs>
</svg>
