<svg width="155" height="40" viewBox="0 0 155 40" fill="none" xmlns="http://www.w3.org/2000/svg">
<path fill-rule="evenodd" clip-rule="evenodd" d="M49.1859 16.1677V16.1227L50.9279 14.9021C51.1541 14.7435 51.1764 14.6761 51.1764 14.4047V2.03962C51.1764 1.76817 51.1541 1.70079 50.9279 1.54254L49.1859 0.321589V0.276543H56.3341V0.321589L54.5925 1.54254C54.3432 1.72312 54.3209 1.76817 54.3209 2.03962V15.2637C54.3209 15.671 54.3887 15.7384 54.6831 15.7384H57.601C58.031 15.7384 58.189 15.693 58.3254 15.4446L60.9039 10.743H60.9494V16.1677H49.1859Z" fill="#1A1A1A"/>
<path fill-rule="evenodd" clip-rule="evenodd" d="M74.4764 8.21058C74.4764 2.53709 72.9602 0.434403 70.789 0.434403C68.5947 0.434403 67.0796 2.53709 67.0796 8.21058C67.0796 13.8845 68.5947 15.9872 70.789 16.0099C72.9602 16.0099 74.4764 13.8845 74.4764 8.21058ZM78.0501 8.21058C78.0501 13.4328 75.3807 16.3937 70.789 16.3937C66.1745 16.3937 63.4828 13.4328 63.4828 8.21058C63.4828 3.01145 66.1745 0.0505295 70.789 0.0505295C75.3807 0.0505295 78.0501 3.01145 78.0501 8.21058Z" fill="#1A1A1A"/>
<path fill-rule="evenodd" clip-rule="evenodd" d="M88.1162 0.0505295C89.5184 0.0505295 91.0569 0.18606 92.5954 0.525279V5.63393H92.55L89.7453 0.886825C89.5415 0.547606 89.4506 0.502952 89.0209 0.457514C88.7948 0.434403 88.569 0.434403 88.3652 0.434403C85.3112 0.434403 84.2027 3.62251 84.2027 8.23369C84.2027 13.1387 85.4696 16.0099 88.4549 16.0099C88.6364 16.0099 88.8626 16.0099 89.0209 15.9872C89.4506 15.9421 89.5415 15.8743 89.7222 15.6025L92.55 10.6975H92.5954V16.0099C91.1243 16.304 89.5638 16.3937 88.342 16.3937C82.9585 16.3937 80.6058 13.0936 80.6058 8.27874C80.6058 3.37338 83.2976 0.0505295 88.1162 0.0505295Z" fill="#1A1A1A"/>
<path fill-rule="evenodd" clip-rule="evenodd" d="M103.023 6.35741L108.294 14.0882C108.497 14.3823 108.724 14.6538 108.973 14.8571L110.443 16.1227V16.1677H105.964L100.603 8.30106L105.941 2.69573C106.19 2.42349 106.122 2.33379 105.873 2.08506L104.041 0.321589V0.276543H110.443V0.321589L107.389 2.1301C106.891 2.42349 106.733 2.51437 106.349 2.89863L103.023 6.35741ZM100.399 14.4047C100.399 14.6761 100.421 14.7435 100.671 14.9021L102.412 16.1227V16.1677H95.264V16.1227L97.0064 14.9021C97.2322 14.7435 97.2545 14.6761 97.2545 14.4047V2.03962C97.2545 1.76817 97.2322 1.70079 97.0064 1.54254L95.264 0.321589V0.276543H102.412V0.321589L100.671 1.54254C100.421 1.72312 100.399 1.76817 100.399 2.03962V14.4047Z" fill="#1A1A1A"/>
<path fill-rule="evenodd" clip-rule="evenodd" d="M111.664 16.1677V16.1227L113.406 14.9021C113.632 14.7435 113.654 14.6761 113.654 14.4047V2.03962C113.654 1.76817 113.632 1.70079 113.406 1.54254L111.664 0.321589V0.276543H118.812V0.321589L117.07 1.54254C116.821 1.72312 116.799 1.76817 116.799 2.03962V15.2637C116.799 15.671 116.867 15.7384 117.161 15.7384H120.079C120.509 15.7384 120.667 15.693 120.803 15.4446L123.382 10.743H123.427V16.1677H111.664Z" fill="#1A1A1A"/>
<path fill-rule="evenodd" clip-rule="evenodd" d="M125.621 16.1677V16.1227L127.363 14.9021C127.589 14.7435 127.611 14.6761 127.611 14.4047V2.03962C127.611 1.76817 127.589 1.70079 127.363 1.54254L125.621 0.321589V0.276543H137.452V5.43102H137.406L135.032 1.09051C134.85 0.751292 134.714 0.705462 134.398 0.705462H131.118C130.824 0.705462 130.756 0.774011 130.756 1.1806V7.91719H132.973C133.267 7.89486 133.357 7.82631 133.584 7.53293L135.303 5.36247H135.348V10.8781H135.303L133.584 8.68572C133.357 8.41427 133.267 8.32457 132.95 8.32457H130.756V15.2637C130.756 15.671 130.824 15.7384 131.118 15.7384H134.511C134.941 15.7384 135.077 15.693 135.234 15.4446L137.61 11.014H137.656V16.1677H125.621Z" fill="#1A1A1A"/>
<path fill-rule="evenodd" clip-rule="evenodd" d="M148.492 14.3369C148.492 14.6307 148.515 14.6761 148.763 14.8344L150.64 16.1227V16.1677H143.198V16.1227L145.099 14.8344C145.325 14.6761 145.347 14.6307 145.347 14.3369V10.2005C145.347 9.90628 145.325 9.79347 145.189 9.56745L141.321 2.40156C141.118 2.01729 140.936 1.81399 140.71 1.56487L139.557 0.321589V0.276543H146.207V0.321589L144.804 1.65535C144.623 1.83671 144.601 1.90409 144.714 2.1301L148.265 8.86669L151.229 3.0796C151.387 2.7631 151.342 2.67262 151.161 2.46893L149.216 0.321589V0.276543H154.599V0.321589L152.337 2.42349C151.975 2.74038 151.862 2.87591 151.636 3.28368L148.673 9.04727C148.515 9.34144 148.492 9.47658 148.492 9.88395V14.3369Z" fill="#1A1A1A"/>
<path fill-rule="evenodd" clip-rule="evenodd" d="M63.5506 38.101C63.5506 38.3721 63.5729 38.4398 63.8218 38.5981L65.5642 39.8186V39.8645H58.4156V39.8186L60.1575 38.5981C60.361 38.4398 60.4061 38.3721 60.4061 38.101V31.93H54.3213V38.101C54.3213 38.3721 54.3436 38.4398 54.5925 38.5981L56.3341 39.8186V39.8645H49.1859V39.8186L50.9283 38.5981C51.1545 38.4398 51.1764 38.3721 51.1764 38.101V25.7356C51.1764 25.4645 51.1545 25.3971 50.9283 25.2389L49.1859 24.0175V23.9725H56.3341V24.0175L54.5925 25.2389C54.3436 25.4195 54.3213 25.4645 54.3213 25.7356V31.5003H60.4061V25.7356C60.4061 25.4645 60.3837 25.3971 60.1575 25.2389L58.4156 24.0175V23.9725H65.5642V24.0175L63.8218 25.2389C63.5729 25.4195 63.5506 25.4645 63.5506 25.7356V38.101Z" fill="#1A1A1A"/>
<path fill-rule="evenodd" clip-rule="evenodd" d="M78.161 31.6335C78.161 25.9604 76.6452 23.8577 74.4736 23.8577C72.2793 23.8577 70.7639 25.9604 70.7639 31.6335C70.7639 37.3074 72.2793 39.4105 74.4736 39.4324C76.6452 39.4324 78.161 37.3074 78.161 31.6335ZM81.7347 31.6335C81.7347 36.8558 79.0653 39.8167 74.4736 39.8167C69.8592 39.8167 67.1666 36.8558 67.1666 31.6335C67.1666 26.4344 69.8592 23.4731 74.4736 23.4731C79.0653 23.4731 81.7347 26.4344 81.7347 31.6335Z" fill="#1A1A1A"/>
<path fill-rule="evenodd" clip-rule="evenodd" d="M100.59 38.5981L102.332 39.8186V39.8645H95.1837V39.8186L96.9253 38.5981C97.1519 38.4398 97.1973 38.3721 97.1973 38.101V28.0416C97.1973 27.635 97.2197 27.0474 97.2648 26.595L91.9491 40H91.9036L86.6326 27.8833C86.4519 27.499 86.2712 27.002 86.1352 26.6177V36.9032C86.1352 37.2643 86.1806 37.3098 86.475 37.6039L88.6685 39.8186V39.8645H83.1494V39.8186L85.3661 37.6039C85.6377 37.3098 85.6828 37.242 85.6828 36.9032V26.3921C85.6828 26.007 85.6597 25.9624 85.4566 25.781L83.5563 24.0175V23.9725H88.3526L93.2838 35.388L97.83 23.9725H102.332V24.0175L100.59 25.3517C100.341 25.51 100.319 25.5777 100.319 25.8488V38.101C100.319 38.3721 100.341 38.4398 100.59 38.5981Z" fill="#1A1A1A"/>
<path fill-rule="evenodd" clip-rule="evenodd" d="M104.626 39.8645V39.8186L106.369 38.5981C106.594 38.4398 106.617 38.3721 106.617 38.101V25.7356C106.617 25.4645 106.594 25.3971 106.369 25.2389L104.626 24.0175V23.9725H116.458V29.127H116.412L114.037 24.7869C113.856 24.4473 113.72 24.4022 113.404 24.4022H110.124C109.829 24.4022 109.761 24.4704 109.761 24.877V31.6135H111.978C112.273 31.5908 112.363 31.5231 112.589 31.2293L114.309 29.0588H114.354V34.5745H114.309L112.589 32.3817C112.363 32.1106 112.273 32.0205 111.956 32.0205H109.761V38.96C109.761 39.367 109.829 39.4348 110.124 39.4348H113.517C113.947 39.4348 114.082 39.3897 114.24 39.1414L116.616 34.7104H116.661V39.8645H104.626Z" fill="#1A1A1A"/>
<path fill-rule="evenodd" clip-rule="evenodd" d="M119.995 39.2068V34.1659H120.04L122.506 38.9357C122.664 39.2068 122.732 39.2977 123.003 39.3419C123.389 39.3874 123.795 39.4324 124.157 39.4324C126.057 39.4324 127.573 38.5284 127.573 36.5612C127.573 35.0018 126.51 34.2556 124.587 33.3292L123.207 32.6735C121.42 31.8372 119.61 30.4588 119.61 27.9714C119.61 25.3043 121.759 23.4731 124.949 23.4731C126.148 23.4731 127.482 23.6094 129.043 23.9933V28.8536H128.998L126.442 24.2867C126.306 24.0387 126.193 23.9028 125.944 23.8805C125.673 23.8577 125.425 23.8577 125.152 23.8577C123.343 23.8577 122.099 24.9197 122.099 26.7062C122.099 28.1979 123.162 28.9668 124.632 29.6675L126.306 30.4588C128.5 31.498 130.197 32.583 130.197 34.934C130.197 37.7367 127.935 39.8167 124.383 39.8167C123.003 39.8167 121.307 39.5911 119.995 39.2068Z" fill="#1A1A1A"/>
<path fill-rule="evenodd" clip-rule="evenodd" d="M5.67993 39.7679L5.67965 34.067H0L0.00138386 5.69903L5.68685 5.70042L5.6791 0.000277802L33.9429 0L33.9417 5.70014H39.622V5.70126L39.6206 34.0678L33.939 34.0675L33.9387 34.0678L33.9429 39.7663L5.67993 39.7679H5.67965ZM8.84953 34.065V36.5866L30.7733 36.5855L30.7735 36.5852C30.7727 29.2583 30.7636 21.9308 30.7566 14.6025C30.6697 14.6025 30.5817 14.6025 30.4948 14.6025C26.0075 14.6025 21.5279 14.6058 17.0423 14.6094L16.9977 11.4272L33.9221 11.4211C33.9229 17.9094 33.9282 24.3988 33.934 30.8865L36.4524 30.8856V30.8853L36.4521 8.88177C36.1806 8.88177 35.909 8.88177 35.6378 8.88177C28.6081 8.88177 21.5789 8.88844 14.5499 8.89983C14.5497 8.9001 14.5497 8.9001 14.5497 8.9001L14.5491 22.8536L11.3798 22.8161L11.379 5.72098C17.8444 5.7207 24.3081 5.71376 30.7721 5.70237V5.70209H30.7724L30.773 3.18135L8.85119 3.1819H8.85091C8.85091 10.5099 8.86005 17.838 8.86918 25.1649H22.7239L22.7181 28.3474L7.91266 28.3457L5.70041 28.3468L5.69958 28.3463C5.69958 28.346 5.69958 28.3457 5.69958 28.3454C5.70069 21.8586 5.69405 15.3689 5.68934 8.88205L3.17209 8.88177V8.88371L3.17016 30.8862C10.4711 30.8862 17.7716 30.8748 25.0726 30.8703C25.0731 26.2181 25.0723 21.6608 25.0723 17.0082L28.2424 17.0149L28.2435 34.0417C21.7781 34.0428 15.3136 34.0556 8.84953 34.0647V34.065Z" fill="#1A1A1A"/>
</svg>
