<svg width="13" height="16" viewBox="0 0 13 16" fill="none" xmlns="http://www.w3.org/2000/svg">
<path d="M6.5 16C6.5 16 12.5 10.314 12.5 6C12.5 4.4087 11.8679 2.88258 10.7426 1.75736C9.61742 0.632141 8.0913 0 6.5 0C4.9087 0 3.38258 0.632141 2.25736 1.75736C1.13214 2.88258 0.5 4.4087 0.5 6C0.5 10.314 6.5 16 6.5 16ZM6.5 9C5.70435 9 4.94129 8.68393 4.37868 8.12132C3.81607 7.55871 3.5 6.79565 3.5 6C3.5 5.20435 3.81607 4.44129 4.37868 3.87868C4.94129 3.31607 5.70435 3 6.5 3C7.29565 3 8.05871 3.31607 8.62132 3.87868C9.18393 4.44129 9.5 5.20435 9.5 6C9.5 6.79565 9.18393 7.55871 8.62132 8.12132C8.05871 8.68393 7.29565 9 6.5 9Z" fill="#9D9D9D"/>
</svg>
