<svg width="24" height="24" viewBox="0 0 24 24" fill="none" xmlns="http://www.w3.org/2000/svg">
<path fill-rule="evenodd" clip-rule="evenodd" d="M12.0008 0.724609C12.7996 0.724609 13.4534 1.37842 13.4534 2.17727V10.5464H21.8224C22.6212 10.5464 23.275 11.2002 23.275 11.999C23.275 12.7979 22.6212 13.4517 21.8224 13.4517H13.4534V21.8208C13.4534 22.6197 12.7996 23.2735 12.0008 23.2735C11.2019 23.2735 10.5481 22.6197 10.5481 21.8208V13.4517H2.1792C1.38036 13.4517 0.726562 12.7979 0.726562 11.999C0.726562 11.2002 1.38036 10.5464 2.1792 10.5464H10.5481V2.17727C10.5481 1.37842 11.2019 0.724609 12.0008 0.724609Z" fill="white"/>
</svg>
