<svg width="65" height="65" viewBox="0 0 65 65" fill="none" xmlns="http://www.w3.org/2000/svg">
<path d="M32.5 65C32.5 65 56.875 41.9006 56.875 24.375C56.875 17.9103 54.3069 11.7105 49.7357 7.13927C45.1645 2.56807 38.9647 0 32.5 0C26.0353 0 19.8355 2.56807 15.2643 7.13927C10.6931 11.7105 8.125 17.9103 8.125 24.375C8.125 41.9006 32.5 65 32.5 65ZM32.5 36.5625C29.2677 36.5625 26.1677 35.2785 23.8821 32.9929C21.5965 30.7073 20.3125 27.6073 20.3125 24.375C20.3125 21.1427 21.5965 18.0427 23.8821 15.7571C26.1677 13.4715 29.2677 12.1875 32.5 12.1875C35.7323 12.1875 38.8323 13.4715 41.1179 15.7571C43.4035 18.0427 44.6875 21.1427 44.6875 24.375C44.6875 27.6073 43.4035 30.7073 41.1179 32.9929C38.8323 35.2785 35.7323 36.5625 32.5 36.5625Z" fill="#1A1A1A"/>
<circle cx="32.5" cy="24.5" r="12.5" fill="#D8E5B3"/>
</svg>
