<svg width="32" height="32" viewBox="0 0 32 32" fill="none" xmlns="http://www.w3.org/2000/svg">
<rect width="32" height="32" rx="16" fill="#1A1A1A"/>
<g clip-path="url(#clip0_145_4186)">
<path fill-rule="evenodd" clip-rule="evenodd" d="M14.5 20C15.2223 20 15.9375 19.8577 16.6048 19.5813C17.272 19.3049 17.8784 18.8998 18.3891 18.3891C18.8998 17.8784 19.3049 17.272 19.5813 16.6048C19.8577 15.9375 20 15.2223 20 14.5C20 13.7777 19.8577 13.0625 19.5813 12.3952C19.3049 11.728 18.8998 11.1216 18.3891 10.6109C17.8784 10.1002 17.272 9.69506 16.6048 9.41866C15.9375 9.14226 15.2223 9 14.5 9C13.0413 9 11.6424 9.57946 10.6109 10.6109C9.57946 11.6424 9 13.0413 9 14.5C9 15.9587 9.57946 17.3576 10.6109 18.3891C11.6424 19.4205 13.0413 20 14.5 20ZM21 14.5C21 16.2239 20.3152 17.8772 19.0962 19.0962C17.8772 20.3152 16.2239 21 14.5 21C12.7761 21 11.1228 20.3152 9.90381 19.0962C8.68482 17.8772 8 16.2239 8 14.5C8 12.7761 8.68482 11.1228 9.90381 9.90381C11.1228 8.68482 12.7761 8 14.5 8C16.2239 8 17.8772 8.68482 19.0962 9.90381C20.3152 11.1228 21 12.7761 21 14.5Z" fill="white"/>
<path d="M18.3442 19.742C18.3742 19.782 18.4062 19.82 18.4422 19.857L22.2922 23.707C22.4797 23.8947 22.7341 24.0001 22.9994 24.0002C23.2647 24.0003 23.5191 23.895 23.7067 23.7075C23.8944 23.52 23.9998 23.2656 23.9999 23.0004C24 22.7351 23.8947 22.4807 23.7072 22.293L19.8572 18.443C19.8215 18.4068 19.783 18.3734 19.7422 18.343C19.35 18.8779 18.8786 19.35 18.3442 19.743V19.742Z" fill="white"/>
<path fill-rule="evenodd" clip-rule="evenodd" d="M14.5 11C14.6326 11 14.7598 11.0527 14.8536 11.1464C14.9473 11.2402 15 11.3674 15 11.5V14H17.5C17.6326 14 17.7598 14.0527 17.8536 14.1464C17.9473 14.2402 18 14.3674 18 14.5C18 14.6326 17.9473 14.7598 17.8536 14.8536C17.7598 14.9473 17.6326 15 17.5 15H15V17.5C15 17.6326 14.9473 17.7598 14.8536 17.8536C14.7598 17.9473 14.6326 18 14.5 18C14.3674 18 14.2402 17.9473 14.1464 17.8536C14.0527 17.7598 14 17.6326 14 17.5V15H11.5C11.3674 15 11.2402 14.9473 11.1464 14.8536C11.0527 14.7598 11 14.6326 11 14.5C11 14.3674 11.0527 14.2402 11.1464 14.1464C11.2402 14.0527 11.3674 14 11.5 14H14V11.5C14 11.3674 14.0527 11.2402 14.1464 11.1464C14.2402 11.0527 14.3674 11 14.5 11Z" fill="white"/>
</g>
<defs>
<clipPath id="clip0_145_4186">
<rect width="16" height="16" fill="white" transform="translate(8 8)"/>
</clipPath>
</defs>
</svg>
